<svg width="24" height="18" viewBox="0 0 24 18" fill="none" xmlns="http://www.w3.org/2000/svg">
<path d="M20.5909 17.5H3.40909C2.50527 17.4989 1.63877 17.1416 0.999672 16.5063C0.360573 15.871 0.00106145 15.0096 0 14.1112V3.88884C0.00106145 2.99039 0.360573 2.12903 0.999672 1.49373C1.63877 0.858431 2.50527 0.501055 3.40909 0.5H20.5909C21.4947 0.501055 22.3612 0.858431 23.0003 1.49373C23.6394 2.12903 23.9989 2.99039 24 3.88884V14.1112C23.9989 15.0096 23.6394 15.871 23.0003 16.5063C22.3612 17.1416 21.4947 17.4989 20.5909 17.5ZM3.40909 1.69606C2.82405 1.69606 2.26298 1.92708 1.8493 2.33831C1.43561 2.74953 1.20321 3.30728 1.20321 3.88884V14.1112C1.20321 14.6927 1.43561 15.2505 1.8493 15.6617C2.26298 16.0729 2.82405 16.3039 3.40909 16.3039H20.5909C21.1759 16.3039 21.737 16.0729 22.1507 15.6617C22.5644 15.2505 22.7968 14.6927 22.7968 14.1112V3.88884C22.7968 3.30728 22.5644 2.74953 22.1507 2.33831C21.737 1.92708 21.1759 1.69606 20.5909 1.69606H3.40909Z" fill="url(#paint0_linear_26_32)"/>
<path d="M12 11.424C11.2578 11.4252 10.5355 11.1858 9.94251 10.7423L0.577535 3.70146C0.511368 3.65529 0.455237 3.59635 0.412497 3.52814C0.369757 3.45993 0.341283 3.38386 0.328777 3.30447C0.31627 3.22508 0.319987 3.144 0.339706 3.06607C0.359425 2.98814 0.394741 2.91496 0.443545 2.8509C0.492349 2.78684 0.55364 2.73322 0.623757 2.69323C0.693874 2.65324 0.77138 2.62771 0.851645 2.61816C0.931909 2.60861 1.01329 2.61524 1.09092 2.63765C1.16855 2.66006 1.24084 2.69779 1.30347 2.74859L10.6684 9.79738C11.053 10.0828 11.5201 10.2369 12 10.2369C12.4799 10.2369 12.947 10.0828 13.3315 9.79738L22.6965 2.74859C22.7592 2.69779 22.8314 2.66006 22.9091 2.63765C22.9867 2.61524 23.0681 2.60861 23.1483 2.61816C23.2286 2.62771 23.3061 2.65324 23.3762 2.69323C23.4464 2.73322 23.5076 2.78684 23.5564 2.8509C23.6053 2.91496 23.6406 2.98814 23.6603 3.06607C23.68 3.144 23.6837 3.22508 23.6712 3.30447C23.6587 3.38386 23.6302 3.45993 23.5875 3.52814C23.5448 3.59635 23.4886 3.65529 23.4225 3.70146L14.0575 10.7423C13.4645 11.1858 12.7421 11.4252 12 11.424Z" fill="url(#paint1_linear_26_32)"/>
<path d="M0.838237 15.8335C0.716221 15.8337 0.597034 15.797 0.496492 15.7282C0.39595 15.6595 0.318807 15.562 0.275297 15.4487C0.231787 15.3354 0.223969 15.2116 0.252879 15.0938C0.281789 14.9759 0.346062 14.8696 0.437167 14.7889L7.81685 8.24648C7.93598 8.14075 8.09249 8.08638 8.25195 8.09536C8.4114 8.10433 8.56074 8.1759 8.66712 8.29433C8.77349 8.41275 8.82817 8.56834 8.81915 8.72684C8.81012 8.88535 8.73812 9.0338 8.61899 9.13954L1.23931 15.682C1.12971 15.7811 0.986394 15.8353 0.838237 15.8335ZM23.1618 15.8335C23.0136 15.8353 22.8703 15.7811 22.7607 15.682L15.381 9.13954C15.2619 9.0338 15.1899 8.88535 15.1809 8.72684C15.1718 8.56834 15.2265 8.41275 15.3329 8.29433C15.4393 8.1759 15.5886 8.10433 15.7481 8.09536C15.9075 8.08638 16.064 8.14075 16.1832 8.24648L23.5588 14.7889C23.6499 14.8696 23.7142 14.9759 23.7431 15.0938C23.772 15.2116 23.7642 15.3354 23.7207 15.4487C23.6772 15.562 23.6 15.6595 23.4995 15.7282C23.399 15.797 23.2798 15.8337 23.1578 15.8335H23.1618Z" fill="url(#paint2_linear_26_32)"/>
<defs>
<linearGradient id="paint0_linear_26_32" x1="0" y1="0.5" x2="16.037" y2="23.1405" gradientUnits="userSpaceOnUse">
<stop offset="0.41106" stop-color="#C407FD"/>
<stop offset="0.608949" stop-color="#9607FD"/>
<stop offset="0.773108" stop-color="#6107FD"/>
<stop offset="1" stop-color="#0720FD"/>
</linearGradient>
<linearGradient id="paint1_linear_26_32" x1="0.321533" y1="2.61392" x2="6.13995" y2="18.0394" gradientUnits="userSpaceOnUse">
<stop offset="0.41106" stop-color="#C407FD"/>
<stop offset="0.608949" stop-color="#9607FD"/>
<stop offset="0.773108" stop-color="#6107FD"/>
<stop offset="1" stop-color="#0720FD"/>
</linearGradient>
<linearGradient id="paint2_linear_26_32" x1="0.235748" y1="8.0944" x2="4.83053" y2="22.0611" gradientUnits="userSpaceOnUse">
<stop offset="0.41106" stop-color="#C407FD"/>
<stop offset="0.608949" stop-color="#9607FD"/>
<stop offset="0.773108" stop-color="#6107FD"/>
<stop offset="1" stop-color="#0720FD"/>
</linearGradient>
</defs>
</svg>
