<svg width="125" height="75" viewBox="0 0 125 75" fill="none" xmlns="http://www.w3.org/2000/svg">
<g clip-path="url(#clip0_17_1353)">
<path d="M2.96365 58.5899C2.60951 58.7076 2.22707 58.5158 2.10945 58.1616C1.99183 57.8075 2.18358 57.4251 2.53772 57.3074L2.96365 58.5899ZM59.1688 66.4057C54.6516 63.5318 46.3675 59.6519 36.3144 57.457C26.2644 55.2627 14.4907 54.7616 2.96365 58.5899L2.53772 57.3074C14.359 53.3813 26.3915 53.9072 36.6027 56.1367C46.8109 58.3656 55.243 62.3064 59.8941 65.2655L59.1688 66.4057Z" fill="white"/>
<path d="M2.75073 57.9126L14.2578 46.5942" stroke="white" stroke-width="2" stroke-linecap="round"/>
<path d="M14.4138 45.8287C14.0411 45.8467 13.7535 46.1635 13.7716 46.5362C13.7896 46.909 14.1064 47.1965 14.4791 47.1785L14.4138 45.8287ZM62.3012 65.1991C58.9466 61.4078 54.0332 56.2123 46.4176 52.1434C38.7958 48.0713 28.5052 45.147 14.4138 45.8287L14.4791 47.1785C28.338 46.508 38.3845 49.3836 45.7808 53.3353C53.1832 57.2902 57.9691 62.3425 61.2892 66.0946L62.3012 65.1991Z" fill="white"/>
<path d="M13.5743 34.2783C13.2021 34.2509 12.8782 34.5304 12.8508 34.9025C12.8234 35.2747 13.1028 35.5986 13.475 35.6261L13.5743 34.2783ZM62.7606 64.918C59.4887 60.1598 53.1257 52.9493 44.63 46.7064C36.1346 40.4636 25.4605 35.1546 13.5743 34.2783L13.475 35.6261C25.0252 36.4776 35.4601 41.6448 43.8298 47.7953C52.1994 53.9456 58.4578 61.0456 61.6471 65.6837L62.7606 64.918Z" fill="white"/>
<path d="M36.2595 26.8554C35.9295 26.6812 35.5207 26.8074 35.3465 27.1374C35.1723 27.4674 35.2985 27.8762 35.6285 28.0504L36.2595 26.8554ZM62.6603 64.7491C62.5435 56.6304 57.0707 37.8441 36.2595 26.8554L35.6285 28.0504C55.9358 38.7731 61.1982 57.0631 61.3091 64.7686L62.6603 64.7491Z" fill="white"/>
<path d="M35.944 27.4529L13.5247 34.9522" stroke="white" stroke-width="2" stroke-linecap="round"/>
<path d="M112.165 22.1722C112.534 22.1196 112.876 22.3764 112.929 22.7458C112.982 23.1152 112.725 23.4574 112.355 23.5101L112.165 22.1722ZM65.174 56.083C68.1149 51.1135 73.9737 43.4874 82.025 36.6816C90.0771 29.876 100.366 23.8541 112.165 22.1722L112.355 23.5101C100.89 25.1444 90.8304 31.0087 82.8973 37.7137C74.9649 44.4185 69.2034 51.9272 66.3369 56.7713L65.174 56.083Z" fill="white"/>
<path d="M89.0277 16.3077C89.3453 16.1115 89.7615 16.2097 89.9574 16.5271C90.1541 16.8445 90.0561 17.2608 89.7385 17.4571L89.0277 16.3077ZM65.2625 55.9077C64.8274 47.7997 69.0108 28.6851 89.0277 16.3077L89.7385 17.4571C70.2068 29.5348 66.199 48.1401 66.6119 55.8352L65.2625 55.9077Z" fill="white"/>
<path d="M89.3831 16.8823L112.26 22.8411" stroke="white" stroke-width="2" stroke-linecap="round"/>
<path d="M2.75075 58.1012L2.37347 66.4014" stroke="white" stroke-width="2" stroke-linecap="round"/>
<path d="M58.777 74.3243C59.9247 73.7547 62.9275 72.9574 65.7566 74.3243" stroke="white" stroke-width="2" stroke-linecap="round"/>
<path d="M59.5315 65.8356C60.4311 65.4085 62.7847 64.8107 65.002 65.8356" stroke="white" stroke-width="2" stroke-linecap="round"/>
<path d="M58.777 74.3243C49.2462 68.6925 24.2828 59.3554 0.67572 67.0594" stroke="white" stroke-width="2" stroke-linecap="round"/>
<path d="M121.57 58.5899C121.924 58.7076 122.306 58.5158 122.424 58.1616C122.542 57.8075 122.35 57.4251 121.996 57.3074L121.57 58.5899ZM65.3647 66.4057C69.8818 63.5318 78.1662 59.6519 88.2189 57.457C98.2689 55.2627 110.043 54.7616 121.57 58.5899L121.996 57.3074C110.174 53.3813 98.1419 53.9072 87.9311 56.1367C77.7223 58.3656 69.2906 62.3064 64.6393 65.2655L65.3647 66.4057Z" fill="white"/>
<path d="M121.783 57.9126L110.276 46.5942" stroke="white" stroke-width="2" stroke-linecap="round"/>
<path d="M110.12 45.8287C110.493 45.8467 110.78 46.1635 110.762 46.5362C110.744 46.909 110.427 47.1965 110.055 47.1785L110.12 45.8287ZM62.2324 65.1991C65.587 61.4078 70.5 56.2123 78.1162 52.1434C85.7378 48.0713 96.0284 45.147 110.12 45.8287L110.055 47.1785C96.1953 46.508 86.1493 49.3836 78.7527 53.3353C71.3507 57.2902 66.5645 62.3425 63.2444 66.0946L62.2324 65.1991Z" fill="white"/>
<path d="M121.782 58.1012L122.16 66.4014" stroke="white" stroke-width="2" stroke-linecap="round"/>
<path d="M65.7566 74.3243C75.2871 68.6925 100.251 59.3554 123.858 67.0594" stroke="white" stroke-width="2" stroke-linecap="round"/>
<path d="M26.0625 3.81961C25.7185 3.67511 25.3225 3.83689 25.1779 4.18095C25.0335 4.525 25.1952 4.92105 25.5393 5.06554L26.0625 3.81961ZM62.9345 48.5246C61.3477 42.9723 57.6114 34.1112 51.5455 25.4883C45.4796 16.8655 37.0512 8.43452 26.0625 3.81961L25.5393 5.06554C36.2174 9.55006 44.4641 17.7707 50.4402 26.2658C56.4162 34.7608 60.0884 43.4838 61.6352 48.8959L62.9345 48.5246Z" fill="white"/>
<path d="M49.9305 4.00525C49.6732 3.73501 49.2455 3.72456 48.9752 3.98191C48.705 4.23925 48.6945 4.66694 48.9519 4.93718L49.9305 4.00525ZM62.8931 48.3325C65.3672 40.599 66.1603 21.0479 49.9305 4.00525L48.9519 4.93718C64.7887 21.5672 63.9541 40.581 61.606 47.9208L62.8931 48.3325Z" fill="white"/>
<path d="M49.4412 4.47115L25.8009 4.4425" stroke="white" stroke-width="2" stroke-linecap="round"/>
</g>
<defs>
<clipPath id="clip0_17_1353">
<rect width="125" height="75" fill="white"/>
</clipPath>
</defs>
</svg>
