<svg width="24" height="24" viewBox="0 0 24 24" fill="none" xmlns="http://www.w3.org/2000/svg">
<path d="M12 0C5.41935 0 0 5.47848 0 12.3067C0 17.7058 3.44516 22.3109 8.24516 23.9783C8.86452 24.0974 9.05806 23.7004 9.05806 23.4225C9.05806 23.1446 9.05806 22.3506 9.01935 21.2787C5.69032 22.0727 4.99355 19.6114 4.99355 19.6114C4.45161 18.2219 3.63871 17.8249 3.63871 17.8249C2.55484 17.0309 3.67742 17.0309 3.67742 17.0309C4.87742 17.0706 5.53548 18.3013 5.53548 18.3013C6.58065 20.2069 8.36129 19.6511 9.01935 19.2938C9.13548 18.4998 9.44516 17.944 9.79355 17.6264C7.16129 17.3485 4.33548 16.2767 4.33548 11.5922C4.33548 10.2424 4.83871 9.1705 5.57419 8.33682C5.45806 8.05893 5.03226 6.78856 5.69032 5.08149C5.69032 5.08149 6.73548 4.7639 9.01935 6.35186C9.9871 6.07397 10.9935 5.91517 12.0387 5.91517C13.0839 5.91517 14.129 6.03427 15.0581 6.35186C17.3419 4.8036 18.3484 5.08149 18.3484 5.08149C19.0065 6.74886 18.6194 8.05893 18.4645 8.33682C19.2387 9.1705 19.7032 10.2821 19.7032 11.5922C19.7032 16.2767 16.8774 17.3485 14.2452 17.6264C14.671 18.0234 15.0581 18.8174 15.0581 19.929C15.0581 21.5963 15.0194 22.9064 15.0194 23.3034C15.0194 23.621 15.2516 23.9783 15.8323 23.8592C20.5548 22.2315 24 17.6661 24 12.2273C23.9613 5.47848 18.5806 0 12 0Z" fill="url(#paint0_linear_25_424)"/>
<defs>
<linearGradient id="paint0_linear_25_424" x1="0" y1="0" x2="24" y2="24" gradientUnits="userSpaceOnUse">
<stop offset="0.41106" stop-color="#C407FD"/>
<stop offset="0.608949" stop-color="#9607FD"/>
<stop offset="0.773108" stop-color="#6107FD"/>
<stop offset="1" stop-color="#0720FD"/>
</linearGradient>
</defs>
</svg>
